<svg xmlns="http://www.w3.org/2000/svg" viewBox="0 0 512 512">
  <defs>
    <linearGradient id="bg" x1="70" x2="442" y1="58" y2="454" gradientUnits="userSpaceOnUse">
      <stop stop-color="#ff5a6b"/>
      <stop offset="0.48" stop-color="#23c483"/>
      <stop offset="1" stop-color="#3478f6"/>
    </linearGradient>
  </defs>
  <rect width="512" height="512" rx="96" fill="url(#bg)"/>
  <path fill="#fff" d="M257 378c-9 0-18-4-24-11L119 236c-27-31-25-78 4-107 31-31 81-31 112 0l21 21 21-21c31-31 81-31 112 0 29 29 31 76 4 107L281 367c-6 7-15 11-24 11Z" opacity=".97"/>
  <path fill="#101216" d="M167 248h44l21-55c4-10 18-10 22 0l37 96 17-42c2-5 6-8 11-8h37c7 0 12 5 12 12s-5 12-12 12h-29l-26 64c-4 10-18 10-22 0l-36-94-13 34c-2 5-7 8-12 8h-52c-7 0-12-5-12-12s5-15 13-15Z" opacity=".82"/>
</svg>
